# xmcd
#
# Track frame offsets: 
#        183
#        12165
#        29638
#        45558
#        56110
#        74048
#        86915
#        101835
#        117675
#        131498
#        145205
#        158853
#        173880
#        185760
#
# Disc length: 2659 seconds
#
# Revision: 2
# Processed by: cddbd v1.5.2PL0 Copyright (c) Steve Scherf et al.
# Submitted via: ExactAudioCopy v0.99pb4
#
DISCID=d80a610e
DTITLE=Various Artist - Classic Irish Country
DYEAR=1989
DGENRE=Country
TTITLE0=Daniel O'donnell - Summertime In Ireland
TTITLE1=Philomena Begley - Blanket On The Ground
TTITLE2=Mick Flavin - Rose Of My Heart
TTITLE3=Susan Mccann - Close All The Hoky Tonks
TTITLE4=T.r.dallas - I'm Going To Hire A Wino
TTITLE5=Irish Mist - The Old Rugged Cross
TTITLE6=Foster and Allen - Red River Valley
TTITLE7=Ray Lynam - Back In Love By Monday
TTITLE8=Mary Duff - She's Got You
TTITLE9=John Hogan - Thank God I'm A Country Boy
TTITLE10=Larry Cunningham - Heartaches By The Number
TTITLE11=Gloria - One Day At Time
TTITLE12=Brian Coll - The Hills Around Clonmell
TTITLE13=Philomena Begley and Ray Lynam - Simply Divine
EXTD=YEAR: 1989
EXTT0=
EXTT1=
EXTT2=
EXTT3=
EXTT4=
EXTT5=
EXTT6=
EXTT7=
EXTT8=
EXTT9=
EXTT10=
EXTT11=
EXTT12=
EXTT13=
PLAYORDER=
